<svg xmlns="http://www.w3.org/2000/svg" xmlns:xlink="http://www.w3.org/1999/xlink" fill="none" version="1.1" width="17.999975204467773" height="14.727919578552246" viewBox="0 0 17.999975204467773 14.727919578552246"><g transform="matrix(1,-2.4492937051703357e-16,2.4492937051703357e-16,1,0,0)"><path d="M1,6.36396C0.447715,6.36396,0,6.81168,0,7.36396C0,7.91624,0.447715,8.36396,1,8.36396C1,8.36396,1,6.36396,1,6.36396C1,6.36396,1,6.36396,1,6.36396ZM17.7071,8.07107C18.0976,7.68054,18.0976,7.04738,17.7071,6.65685C17.7071,6.65685,11.3431,0.29289,11.3431,0.29289C10.9526,-0.09763,10.3195,-0.09763,9.92893,0.29289C9.53841,0.68342,9.53841,1.31658,9.92893,1.70711C9.92893,1.70711,15.5858,7.36396,15.5858,7.36396C15.5858,7.36396,9.92893,13.0208,9.92893,13.0208C9.53841,13.4113,9.53841,14.0445,9.92893,14.435C10.3195,14.8256,10.9526,14.8256,11.3431,14.435C11.3431,14.435,17.7071,8.07107,17.7071,8.07107C17.7071,8.07107,17.7071,8.07107,17.7071,8.07107ZM1,8.36396C1,8.36396,17,8.36396,17,8.36396C17,8.36396,17,6.36396,17,6.36396C17,6.36396,1,6.36396,1,6.36396C1,6.36396,1,8.36396,1,8.36396C1,8.36396,1,8.36396,1,8.36396Z" fill="#000000" fill-opacity="1"/></g></svg>